<svg width="40" height="40" viewBox="0 0 40 40" fill="none" xmlns="http://www.w3.org/2000/svg">
<rect width="40" height="40" rx="20" fill="#201F1F"/>
<path d="M12 26C11.45 26 10.9792 25.8042 10.5875 25.4125C10.1958 25.0208 10 24.55 10 24V16C10 15.45 10.1958 14.9792 10.5875 14.5875C10.9792 14.1958 11.45 14 12 14H28C28.55 14 29.0208 14.1958 29.4125 14.5875C29.8042 14.9792 30 15.45 30 16V24C30 24.55 29.8042 25.0208 29.4125 25.4125C29.0208 25.8042 28.55 26 28 26H12V26M12 24H28V24V24V16V16V16H12V16V16V24V24V24V24M15 23H17V21H19V19H17V17H15V19H13V21H15V23V23M22.5 23C22.9167 23 23.2708 22.8542 23.5625 22.5625C23.8542 22.2708 24 21.9167 24 21.5C24 21.0833 23.8542 20.7292 23.5625 20.4375C23.2708 20.1458 22.9167 20 22.5 20C22.0833 20 21.7292 20.1458 21.4375 20.4375C21.1458 20.7292 21 21.0833 21 21.5C21 21.9167 21.1458 22.2708 21.4375 22.5625C21.7292 22.8542 22.0833 23 22.5 23V23M25.5 20C25.9167 20 26.2708 19.8542 26.5625 19.5625C26.8542 19.2708 27 18.9167 27 18.5C27 18.0833 26.8542 17.7292 26.5625 17.4375C26.2708 17.1458 25.9167 17 25.5 17C25.0833 17 24.7292 17.1458 24.4375 17.4375C24.1458 17.7292 24 18.0833 24 18.5C24 18.9167 24.1458 19.2708 24.4375 19.5625C24.7292 19.8542 25.0833 20 25.5 20V20M12 24V24V24V16V16V16V16V16V16V24V24V24V24V24" fill="white"/>
</svg>
